<?xml version="1.0" encoding="UTF-8"?>
<svg xmlns="http://www.w3.org/2000/svg" width="600" height="360" viewBox="0 0 600 360">
  <defs>
    <linearGradient id="shBg" x1="0" y1="0" x2="1" y2="1">
      <stop offset="0" stop-color="#0a0e1a"/>
      <stop offset="1" stop-color="#134e4a"/>
    </linearGradient>
    <linearGradient id="shBot" x1="0" y1="0" x2="0" y2="1">
      <stop offset="0" stop-color="#5eead4"/>
      <stop offset="1" stop-color="#14b8a6"/>
    </linearGradient>
  </defs>
  <rect width="600" height="360" fill="url(#shBg)"/>
  <rect x="48" y="48" width="240" height="264" rx="16" fill="#0f172a" stroke="#2dd4bf" stroke-width="1.5"/>
  <rect x="48" y="48" width="240" height="36" rx="16" fill="#1e293b"/>
  <rect x="48" y="72" width="240" height="12" fill="#1e293b"/>
  <circle cx="68" cy="66" r="5" fill="#f87171"/>
  <circle cx="88" cy="66" r="5" fill="#fbbf24"/>
  <circle cx="108" cy="66" r="5" fill="#4ade80"/>
  <rect x="68" y="100" width="160" height="8" rx="3" fill="#334155"/>
  <rect x="68" y="118" width="120" height="8" rx="3" fill="#475569" opacity="0.85"/>
  <rect x="68" y="150" width="200" height="72" rx="12" fill="url(#shBot)"/>
  <text x="80" y="188" fill="#042f2e" font-family="system-ui,sans-serif" font-size="15" font-weight="700">RAG</text>
  <text x="80" y="208" fill="#134e4a" font-family="system-ui,sans-serif" font-size="11">?> 1075 7=0=89</text>
  <path d="M312 178h72" stroke="#5eead4" stroke-width="2" stroke-linecap="round"/>
  <path d="M376 178 l-12 -8v16z" fill="#5eead4"/>
  <text x="292" y="200" fill="#94a3b8" font-family="system-ui,sans-serif" font-size="11">=5B >B25B0</text>
  <rect x="400" y="108" width="152" height="144" rx="16" fill="#1e293b" stroke="#64748b" stroke-width="1.2"/>
  <circle cx="476" cy="156" r="22" fill="#334155" stroke="#5eead4" stroke-width="1.2"/>
  <circle cx="476" cy="150" r="8" fill="#94a3b8"/>
  <path d="M451 188q25 28 50 0" fill="none" stroke="#94a3b8" stroke-width="2"/>
  <text x="418" y="230" fill="#cbd5e1" font-family="system-ui,sans-serif" font-size="12" font-weight="600">?5@0B>@</text>
  <text x="418" y="248" fill="#94a3b8" font-family="system-ui,sans-serif" font-size="10">Telegram / :><0=40</text>
</svg>
